<svg xmlns="http://www.w3.org/2000/svg" viewBox="0 0 64 64"><defs><linearGradient id="linear-gradient" x1="38.62" y1="3.824" x2="9.141" y2="54.884" gradientUnits="userSpaceOnUse"><stop offset="0" stop-color="#e63a00"/><stop offset=".031" stop-color="#e63a00" stop-opacity=".883"/><stop offset=".099" stop-color="#e63a00" stop-opacity=".652"/><stop offset=".168" stop-color="#e63a00" stop-opacity=".452"/><stop offset=".236" stop-color="#e63a00" stop-opacity=".289"/><stop offset=".304" stop-color="#e63a00" stop-opacity=".163"/><stop offset=".371" stop-color="#e63a00" stop-opacity=".072"/><stop offset=".437" stop-color="#e63a00" stop-opacity=".018"/><stop offset=".5" stop-color="#e63a00" stop-opacity="0"/></linearGradient><linearGradient id="linear-gradient-2" x1="4.25" y1="32.001" x2="32" y2="32.001" gradientUnits="userSpaceOnUse"><stop offset=".722" stop-color="#fff"/><stop offset="1" stop-color="#333"/></linearGradient><linearGradient id="linear-gradient-3" x1="16.5" y1="31.999" x2="47.5" y2="31.999" gradientUnits="userSpaceOnUse"><stop offset="0" stop-color="gray"/><stop offset=".05" stop-color="#989898"/><stop offset=".142" stop-color="#bdbdbd"/><stop offset=".234" stop-color="#dadada"/><stop offset=".324" stop-color="#eee"/><stop offset=".414" stop-color="#fbfbfb"/><stop offset=".5" stop-color="#fff"/><stop offset=".564" stop-color="#fbfbfb"/><stop offset=".63" stop-color="#eee"/><stop offset=".697" stop-color="#dadada"/><stop offset=".765" stop-color="#bdbdbd"/><stop offset=".833" stop-color="#979797"/><stop offset=".902" stop-color="#696969"/><stop offset=".97" stop-color="#343434"/><stop offset="1" stop-color="#1a1a1a"/></linearGradient><radialGradient id="radial-gradient" cx="13.512" cy="43.928" r="50.321" gradientTransform="matrix(1.0825 0 0 1.07277 32.634 .002)" gradientUnits="userSpaceOnUse"><stop offset="0" stop-color="#858dff"/><stop offset=".515" stop-color="#5864fa"/></radialGradient><mask id="mask" x="4" y=".002" width="28" height="63.999" maskUnits="userSpaceOnUse"><path d="M31.098.19L8.443 10.108A7 7 0 0 0 4.25 16.52v35.54l26.848 11.752A2.25 2.25 0 0 0 32 64V.002a2.25 2.25 0 0 0-.902.189z" fill="url(#linear-gradient)"/><path d="M31.098.19L8.443 10.108A7 7 0 0 0 4.25 16.52v35.54l26.848 11.752A2.25 2.25 0 0 0 32 64V.002a2.25 2.25 0 0 0-.902.189z" fill="url(#linear-gradient-2)"/></mask><linearGradient id="linear-gradient-4" x1="38.551" y1="3.784" x2="9.009" y2="54.952" gradientUnits="userSpaceOnUse"><stop offset=".005" stop-color="#8087ff"/><stop offset=".06" stop-color="#8087ff" stop-opacity=".797"/><stop offset=".124" stop-color="#8087ff" stop-opacity=".588"/><stop offset=".188" stop-color="#8087ff" stop-opacity=".408"/><stop offset=".253" stop-color="#8087ff" stop-opacity=".261"/><stop offset=".317" stop-color="#8087ff" stop-opacity=".147"/><stop offset=".38" stop-color="#8087ff" stop-opacity=".065"/><stop offset=".442" stop-color="#8087ff" stop-opacity=".016"/><stop offset=".502" stop-color="#8087ff" stop-opacity="0"/></linearGradient><mask id="mask-2" x="16.5" y=".001" width="31" height="64" maskUnits="userSpaceOnUse"><path d="M33.69 63.236l12.07-13.74a7 7 0 0 0 1.74-4.62V6.58L32.902.19a2.25 2.25 0 0 0-1.804 0L16.5 6.58v38.296a7 7 0 0 0 1.74 4.62l12.07 13.74a2.258 2.258 0 0 0 3.38 0z" fill="url(#linear-gradient-3)"/></mask><linearGradient id="linear-gradient-5" x1="32" y1=".001" x2="32" y2="64.001" gradientUnits="userSpaceOnUse"><stop offset="0" stop-color="#4551e0" stop-opacity="0"/><stop offset=".073" stop-color="#4551e0" stop-opacity=".019"/><stop offset=".148" stop-color="#4551e0" stop-opacity=".074"/><stop offset=".224" stop-color="#4551e0" stop-opacity=".167"/><stop offset=".301" stop-color="#4551e0" stop-opacity=".297"/><stop offset=".379" stop-color="#4551e0" stop-opacity=".464"/><stop offset=".456" stop-color="#4551e0" stop-opacity=".665"/><stop offset=".501" stop-color="#4551e0" stop-opacity=".8"/><stop offset=".604" stop-color="#4551e0" stop-opacity=".781"/><stop offset=".711" stop-color="#4551e0" stop-opacity=".726"/><stop offset=".819" stop-color="#4551e0" stop-opacity=".633"/><stop offset=".928" stop-color="#4551e0" stop-opacity=".505"/><stop offset="1" stop-color="#4551e0" stop-opacity=".4"/></linearGradient></defs><g id="hexagons"><path d="M4 16.723V52.06l27.1 11.753a2.263 2.263 0 0 0 1.8.002l22.716-9.854A7.282 7.282 0 0 0 60 47.28V11.944L32.9.189a2.268 2.268 0 0 0-1.801 0L8.384 10.043A7.282 7.282 0 0 0 4 16.722z" fill="url(#radial-gradient)"/><g mask="url(#mask)"><path d="M31.099.19L8.365 10.05A7.25 7.25 0 0 0 4 16.7v35.36l27.1 11.753a2.241 2.241 0 0 0 .9.188V.002a2.244 2.244 0 0 0-.901.188z" fill="url(#linear-gradient-4)"/></g><g mask="url(#mask-2)"><path d="M30.31 63.236a2.25 2.25 0 0 0 3.38 0l12.07-13.74a7 7 0 0 0 1.74-4.62V6.58L32.9.19a2.244 2.244 0 0 0-1.801 0L16.5 6.523v38.353a7 7 0 0 0 1.74 4.62z" fill="url(#linear-gradient-5)"/></g></g><g id="icons"><path d="M11 23.16a.636.636 0 0 1 .636-.636h5.369c5.85 0 10.752 2.489 10.752 9.135 0 5.877-4.799 9.033-10.213 9.033H11zm4.003 13.837h2.079c3.72 0 6.518-1.412 6.518-5.543 0-3.567-2.849-5.235-6.236-5.235h-2.36zm26.251 1.54A6.776 6.776 0 0 1 35.994 41c-3.85 0-6.93-2.566-6.93-6.544 0-3.977 3.08-6.543 6.93-6.543 3.592 0 5.85 2.566 5.85 6.543v1.206h-8.93a2.876 2.876 0 0 0 2.9 2.413 3.12 3.12 0 0 0 2.388-1.079.635.635 0 0 1 .841-.08zm-3.259-5.492a2.307 2.307 0 0 0-2.361-2.36 2.568 2.568 0 0 0-2.72 2.36zm3.823-4.824h4.157l3.156 8.468h.052l2.925-8.468h3.875L51.215 40.29a.636.636 0 0 1-.592.402h-3.647z" fill="#fff"/></g></svg>